<svg width="20" height="15" viewBox="0 0 20 15" fill="none" xmlns="http://www.w3.org/2000/svg">
<path d="M19.9992 12.4842C19.9992 13.0717 19.7658 13.6352 19.3504 14.0506C18.935 14.466 18.3715 14.6994 17.784 14.6994H2.27769C1.69019 14.6994 1.12674 14.466 0.711314 14.0506C0.295885 13.6352 0.0625 13.0717 0.0625 12.4842V2.51585C0.0625 1.92834 0.295885 1.3649 0.711314 0.949473C1.12674 0.534045 1.69019 0.300659 2.27769 0.300659H17.784C18.3715 0.300659 18.935 0.534045 19.3504 0.949473C19.7658 1.3649 19.9992 1.92834 19.9992 2.51585V12.4842Z" fill="#C60A1D"/>
<path d="M0.0625 4.17725H19.9992V10.8228H0.0625V4.17725Z" fill="#FFC400"/>
<path d="M5.04688 6.94617V8.60756C5.04688 9.04819 5.22191 9.47077 5.53349 9.78234C5.84506 10.0939 6.26764 10.269 6.70827 10.269C7.1489 10.269 7.57148 10.0939 7.88305 9.78234C8.19462 9.47077 8.36966 9.04819 8.36966 8.60756V6.94617H5.04688Z" fill="#EA596E"/>
<path d="M6.70703 6.39246H8.36842V8.05385H6.70703V6.39246Z" fill="#F4A2B2"/>
<path d="M5.04688 6.39246H6.70827V8.05385H5.04688V6.39246Z" fill="#DD2E44"/>
<path d="M6.70827 6.39235C7.62583 6.39235 8.36966 6.02043 8.36966 5.56165C8.36966 5.10287 7.62583 4.73096 6.70827 4.73096C5.79071 4.73096 5.04688 5.10287 5.04688 5.56165C5.04688 6.02043 5.79071 6.39235 6.70827 6.39235Z" fill="#EA596E"/>
<path d="M6.70827 5.56165C7.62583 5.56165 8.36966 5.3757 8.36966 5.14631C8.36966 4.91691 7.62583 4.73096 6.70827 4.73096C5.79071 4.73096 5.04688 4.91691 5.04688 5.14631C5.04688 5.3757 5.79071 5.56165 6.70827 5.56165Z" fill="#FFAC33"/>
<path d="M3.94141 6.39246H4.4952V10.269H3.94141V6.39246ZM8.92558 6.39246H9.47938V10.269H8.92558V6.39246Z" fill="#99AAB5"/>
<path d="M3.38672 9.71521H5.04811V10.269H3.38672V9.71521ZM8.3709 9.71521H10.0323V10.269H8.3709V9.71521ZM3.94052 5.83862H4.49431V6.39242H3.94052V5.83862ZM8.92469 5.83862H9.47849V6.39242H8.92469V5.83862Z" fill="#66757F"/>
</svg>
