<svg width="20" height="15" viewBox="0 0 20 15" fill="none" xmlns="http://www.w3.org/2000/svg">
<path d="M20.001 12.4842C20.001 13.0717 19.7677 13.6352 19.3522 14.0506C18.9368 14.466 18.3734 14.6994 17.7858 14.6994H13.3555V0.300659H17.7858C18.3734 0.300659 18.9368 0.534045 19.3522 0.949473C19.7677 1.3649 20.001 1.92834 20.001 2.51585V12.4842Z" fill="#ED2939"/>
<path d="M2.27769 0.300659C1.69018 0.300659 1.12674 0.534045 0.711314 0.949473C0.295885 1.3649 0.0625 1.92834 0.0625 2.51585L0.0625 12.4842C0.0625 13.0717 0.295885 13.6352 0.711314 14.0506C1.12674 14.466 1.69018 14.6994 2.27769 14.6994H6.70807V0.300659H2.27769Z" fill="#002495"/>
<path d="M6.70703 0.300659H13.3526V14.6994H6.70703V0.300659Z" fill="#EEEEEE"/>
</svg>
